<svg width="1099pt" height="1099pt" version="1.0" viewBox="0 0 1099 1099" xmlns="http://www.w3.org/2000/svg">
 <g transform="matrix(.1 0 0 -.1 -250.5 1349.5)">
  <path d="m4645 13493c-184-11-447-67-625-133-330-121-590-288-841-539-363-363-576-787-656-1306-17-115-18-263-18-3515s1-3400 18-3515c80-519 293-943 656-1306s787-576 1306-656c115-17 263-18 3515-18s3400 1 3515 18c519 80 943 293 1306 656s576 787 656 1306c17 115 18 263 18 3515s-1 3400-18 3515c-80 519-293 943-656 1306-356 356-755 560-1276 652l-120 21-3365 1c-1851 1-3387 0-3415-2zm6817-1021c519-120 896-498 1010-1015l23-102v-6710l-23-102c-115-519-496-900-1015-1015l-102-23h-6710l-102 23c-517 114-895 491-1015 1010l-23 97-3 3290c-2 2276 0 3322 8 3395 19 194 70 356 162 516 208 364 570 605 980 653 40 5 1567 8 3393 7l3320-1z"/>
  <path d="m7695 11383c-1255-100-2313-666-2903-1553-95-143-234-417-286-567-213-601-189-1240 68-1824 413-939 1406-1657 2591-1874 77-14 178-32 224-41 131-23 236-68 292-124 39-39 49-57 59-106 17-83 8-224-30-444-46-270-42-343 21-375 114-60 365 51 949 418 1131 712 1979 1421 2436 2039 266 359 428 727 495 1123 26 156 36 441 20 607-55 583-319 1135-764 1595-623 644-1522 1044-2521 1123-116 9-551 11-651 3zm-1738-2117c21-14 47-40 58-58 19-32 20-58 25-693l5-660 302-5 301-5 39-31c54-44 77-88 77-149 0-66-29-122-83-160l-43-30-406-3c-354-2-413-1-449 13-51 20-98 71-112 122-15 52-15 1504-1 1555 34 120 181 174 287 104zm1282-1c24-16 49-45 61-69 20-41 20-58 20-811s0-770-20-811c-75-154-303-127-349 41-15 56-15 1484 0 1540 35 129 177 183 288 110zm626 16c22-10 52-31 66-47s188-249 385-519l359-489 5 464c5 460 5 465 28 507 34 65 91 98 167 98s133-33 167-98l23-42v-1540l-25-45c-33-59-114-104-177-97-93 10-91 7-498 561l-380 517-5-473c-5-513-4-501-62-555-95-89-244-58-299 62-18 38-19 82-19 798 0 819-1 797 53 856 30 32 94 61 137 61 19 0 53-9 75-19zm2476-16c54-38 83-94 83-160 0-61-23-105-77-149l-39-31-301-5-302-5-3-167-2-166 292-4 293-3 45-27c126-73 126-253 0-326l-45-27-293-3-292-3 2-167 3-167 295-5c324-5 330-7 384-70 62-74 55-191-16-257-55-52-68-53-495-53-365 0-401 2-438 19-50 22-91 69-105 119-13 50-14 1503 0 1553 6 20 25 52 43 73 56 65 64 66 519 63l406-2z"/>
 </g>
</svg>
